<?xml version="1.0" encoding="UTF-8" standalone="no"?>
<svg width="512" height="512" viewBox="0 0 512 512" version="1.1" xmlns="http://www.w3.org/2000/svg">
  <defs>
    <linearGradient id="mainGrad" x1="0%" y1="0%" x2="100%" y2="100%">
      <stop offset="0%" style="stop-color:#4CAF50;stop-opacity:1" />
      <stop offset="100%" style="stop-color:#2E7D32;stop-opacity:1" />
    </linearGradient>
  </defs>
  
  <!-- Background Shape (Rounded Square) -->
  <rect x="32" y="32" width="448" height="448" rx="110" ry="110" fill="url(#mainGrad)" />
  
  <!-- Abstract Ledger/Wallet Element (White) -->
  <path d="M140 150 L372 150 A20 20 0 0 1 392 170 L392 342 A20 20 0 0 1 372 362 L140 362 A20 20 0 0 1 120 342 L120 170 A20 20 0 0 1 140 150 Z" fill="#FFFFFF" opacity="0.9"/>
  
  <!-- Financial Accent (Graph bars inside) -->
  <rect x="170" y="280" width="40" height="50" rx="4" fill="#4CAF50" />
  <rect x="236" y="230" width="40" height="100" rx="4" fill="#4CAF50" />
  <rect x="302" y="190" width="40" height="140" rx="4" fill="#4CAF50" />
  
  <!-- Subtle Checkmark/Highlight element overlay -->
  <path d="M370 120 L370 180" stroke="#FFFFFF" stroke-width="12" stroke-linecap="round" opacity="0.5"/>
</svg>